#!OML:ASF H:\ColoradoDance\Project 1\Capture day 1\Session 8\male.ASF
:FULLY-SPECIFIED
:DEGREES
15
upperback -2.619800 -1.430030 1.183340
rfoot -4.069770 -19.460501
lradius 44.923302
lthumb 6.533240 54.901798
rradius 29.993401
lwrist -9.399300
rhand 20.231800 -17.989100
rhumerus -53.786701 -8.281390 -79.722198
lowerneck -5.395870 -5.348160 0.055928
lhand -19.799601 25.022600
ltibia 50.469799
head 2.124080 -3.559270 0.600175
rwrist 9.840520
lfingers 7.125020
rtoes -6.984060
lowerback 3.180440 -1.012230 -2.173590
rfingers 7.125020
lclavicle 0.000000 0.000000
upperneck 3.486560 -7.284390 2.746400
rfemur -24.515800 -17.407301 8.171930
thorax -4.406290 -0.628042 2.541670
rclavicle 0.000000 0.000000
rtibia 74.165298
lfoot -23.240000 0.174533
lhumerus -35.455200 -4.470010 66.545097
rthumb 44.750999 -41.586102
root 35.051300 17.268101 -13.189500 17.867201 -68.184998 -6.119440
ltoes -19.988701
lfemur -30.693600 14.854000 -1.147010
16
upperback -2.043900 -3.460850 0.514950
rfoot -18.274300 -10.599200
lradius 36.653801
lthumb 10.071000 49.164101
rradius 27.563900
lwrist -11.167400
rhand -29.754900 -2.149850
rhumerus -60.448601 -9.811490 -69.197403
lowerneck -3.676490 0.628500 5.139290
lhand -16.133801 19.425100
ltibia 46.059700
head 0.820673 0.305302 -1.390700
rwrist 8.984320
lfingers 7.125020
rtoes -20.739599
lowerback 4.280860 -2.392680 -4.548080
rfingers 7.125020
lclavicle 0.000000 0.000000
upperneck 0.568023 0.628336 -1.713890
rfemur -63.618198 -25.952499 35.590302
thorax -4.218440 -1.586500 3.345140
rclavicle 0.000000 0.000000
rtibia 76.361702
lfoot -32.091999 11.768400
lhumerus -26.658400 -9.729550 71.444099
rthumb -3.080760 -32.107300
root 32.598499 17.301600 -10.910800 30.717199 -84.056198 -18.893801
ltoes -21.423500
lfemur -11.489400 18.321400 -7.324480
17
upperback -2.402250 -9.090620 1.772820
rfoot -12.720800 -4.979710
lradius 27.981001
lthumb 14.793100 57.934700
rradius 26.011000
lwrist -17.336000
rhand -22.590700 -13.457200
rhumerus -54.735001 -5.180320 -47.171600
lowerneck -3.656890 7.406990 8.219670
lhand -11.236100 28.482700
ltibia 0.000000
head 1.538790 4.753710 -3.514380
rwrist 9.892030
lfingers 7.125020
rtoes -12.421500
lowerback 0.486925 -6.771450 -3.197440
rfingers 7.125020
lclavicle -0.000000 0.000000
upperneck 0.195383 9.651480 -7.257800
rfemur -66.190102 -9.485890 27.260099
thorax -1.966080 -4.484200 3.727170
rclavicle -0.000000 0.000000
rtibia 54.165100
lfoot -12.301700 22.100599
lhumerus -10.917600 -17.268900 71.241096
rthumb 3.838370 -43.402401
root 27.925100 17.039200 -10.042200 108.488998 -89.139900 -95.401001
ltoes -31.917101
lfemur 27.034599 3.001670 -13.924800
18
upperback -3.593450 -2.883280 1.392930
rfoot -17.514601 -5.327610
lradius 19.129801
lthumb 7.393450 52.715401
rradius 16.044901
lwrist -27.861900
rhand -23.442400 -43.135300
rhumerus -22.348499 -18.278200 -51.191601
lowerneck -3.777390 8.281890 9.680010
lhand -18.908501 22.864599
ltibia 61.208000
head 1.259620 5.245370 -4.093990
rwrist 26.822800
lfingers 7.125020
rtoes -4.126280
lowerback 1.908760 -2.237960 2.626870
rfingers 7.125020
lclavicle 0.000000 0.000000
upperneck -1.481690 10.689300 -8.238330
rfemur -48.099499 -3.463500 30.037300
thorax -4.839610 -1.527570 0.149946
rclavicle 0.000000 0.000000
rtibia 54.348900
lfoot -3.851740 16.572399
lhumerus -24.292500 -3.345990 47.953999
rthumb 3.015830 -73.093803
root 22.385700 18.220800 -10.087700 170.615005 -75.307098 -155.531006
ltoes -12.149400
lfemur -14.796300 13.223700 -8.989540
19
upperback -4.488850 5.606330 -0.012273
rfoot -21.995899 -20.460899
lradius 19.452900
lthumb -0.533766 57.040501
rradius 28.801500
lwrist -20.794800
rhand -27.374201 -43.766499
rhumerus -9.223630 3.002220 -71.139297
lowerneck -3.822720 -3.452610 2.063940
lhand -27.117701 27.061399
ltibia 37.330898
head 1.444910 -2.333280 -0.603170
rwrist 17.266300
lfingers 7.125020
rtoes -15.163200
lowerback 1.855990 4.086150 3.898360
rfingers 7.125020
lclavicle 0.000000 0.000000
upperneck 2.793760 -4.699550 -0.478338
rfemur -10.272500 -7.240620 28.143999
thorax -5.320550 2.596180 -2.524800
rclavicle 0.000000 0.000000
rtibia 31.094299
lfoot 12.450600 11.746600
lhumerus -52.930099 8.404890 35.344799
rthumb -0.781542 -73.744797
root 16.660400 19.196899 -9.867620 81.249298 -82.184799 -70.586304
ltoes -16.165600
lfemur -49.675701 14.578900 -15.573900
20
upperback -4.508110 8.179650 -0.880526
rfoot 22.200701 -14.776700
lradius 15.778500
lthumb 3.294520 65.254303
rradius 41.515701
lwrist -21.790600
rhand -30.802401 -9.324220
rhumerus -16.491699 6.937570 -84.110901
lowerneck -4.076670 -5.706600 4.519900
lhand -23.153900 35.299999
ltibia 30.851299
head 3.656350 -3.834340 -1.873140
rwrist 12.383800
lfingers 7.125020
rtoes 5.729260
lowerback 0.776985 6.072190 3.494340
rfingers 7.125020
lclavicle 0.000000 0.000000
upperneck 9.886290 -7.842620 -2.279550
rfemur 3.041590 -8.642580 22.815399
thorax -4.485690 3.911400 -3.180540
rclavicle 0.000000 0.000000
rtibia 43.367699
lfoot 2.196100 11.478100
lhumerus -67.827400 10.225700 14.612000
rthumb -4.092350 -39.264702
root 10.264800 20.062500 -8.713840 19.695101 -55.791199 -19.578699
ltoes -10.951100
lfemur -22.744600 -4.714890 -16.315001
21
upperback -4.021500 4.746420 -3.008580
rfoot -7.652920 -31.393700
lradius 26.529600
lthumb 18.855400 61.578499
rradius 43.843498
lwrist -8.808650
rhand -24.463100 -3.963550
rhumerus -32.308102 8.072030 -79.868500
lowerneck -3.613830 6.607590 12.439000
lhand -7.016030 32.472301
ltibia 26.634100
head 4.483050 4.456120 -4.586650
rwrist 9.142760
lfingers 7.125020
rtoes 37.245499
lowerback 1.443600 3.650660 -0.521889
rfingers 7.125020
lclavicle 0.000000 -0.000000
upperneck 9.625300 9.026630 -9.951390
rfemur -7.455490 11.044500 9.432350
thorax -4.749920 2.324340 -3.079140
rclavicle 0.000000 -0.000000
rtibia 34.864601
lfoot -0.090849 1.328730
lhumerus -43.756500 4.693910 53.076599
rthumb 2.030090 -33.933601
root 5.331950 20.414301 -8.107390 12.064900 3.497290 -2.210850
ltoes -16.558800
lfemur -19.404900 -14.826700 -17.391500
22
upperback -3.901260 4.570160 -0.363639
rfoot -9.038100 -10.806300
lradius 39.801800
lthumb 0.768942 60.470501
rradius 39.331501
lwrist 3.596650
rhand -19.860100 -6.603340
rhumerus -40.994099 5.054910 -71.796402
lowerneck -6.148430 2.194130 6.656930
lhand -25.768900 30.492100
ltibia 25.304199
head 4.062780 1.400010 -2.943480
rwrist 12.089900
lfingers 7.125020
rtoes -26.201200
lowerback 2.624930 3.297480 2.666960
rfingers 7.125020
lclavicle 0.000000 0.000000
upperneck 9.585190 2.998580 -6.582520
rfemur -7.782500 5.204580 18.339701
thorax -5.273590 2.167110 -2.185220
rclavicle 0.000000 0.000000
rtibia 28.169701
lfoot 6.405910 3.910030
lhumerus -41.318901 1.382910 65.936699
rthumb 6.474830 -36.484402
root -0.059161 19.956699 -7.373730 14.343600 57.288200 -2.024410
ltoes -9.045540
lfemur -39.127602 -21.128599 1.484910
23
upperback -3.304470 1.406580 -1.067830
rfoot -31.168200 -27.699200
lradius 48.267502
lthumb 14.818400 69.509201
rradius 34.671001
lwrist -1.044990
rhand -14.201200 -32.722698
rhumerus -47.770901 -6.228300 -67.489998
lowerneck -4.412550 -6.568170 0.664580
lhand -11.209700 40.059101
ltibia 54.240601
head 3.190020 -4.331880 -0.335039
rwrist 9.248170
lfingers 7.125020
rtoes 0.160192
lowerback 3.670010 1.096350 -0.623701
rfingers 7.125020
lclavicle 0.000000 0.000000
upperneck 7.579730 -8.842390 0.432338
rfemur -28.150200 -11.301400 34.197601
thorax -5.468580 0.711860 -0.876148
rclavicle 0.000000 0.000000
rtibia 43.115700
lfoot -22.466801 9.866690
lhumerus -32.402901 -7.939220 72.570702
rthumb 11.935100 -62.362499
root -5.231880 18.857300 -6.138660 170.324005 81.801399 156.408005
ltoes 21.536600
lfemur -33.320900 2.487500 -12.043100
24
upperback -3.588540 -3.568440 -1.033000
rfoot -18.033701 -27.825399
lradius 48.481800
lthumb 8.333670 56.575901
rradius 38.029598
lwrist -2.998920
rhand -14.023600 -29.128500
rhumerus -52.381599 -6.906750 -75.982903
lowerneck -3.761520 -8.405120 -2.866090
lhand -17.934401 26.760300
ltibia 43.143799
head 2.473650 -5.526440 2.592930
rwrist 6.690380
lfingers 7.125020
rtoes 8.913120
lowerback 3.911790 -2.446420 -4.465150
rfingers 7.125020
lclavicle 0.000000 0.000000
upperneck 3.530470 -11.412200 7.791450
rfemur -57.192501 -16.648600 45.205002
thorax -5.721280 -1.578740 1.728000
rclavicle 0.000000 0.000000
rtibia 47.128601
lfoot -11.618500 1.843060
lhumerus -19.630301 -21.908300 76.507896
rthumb 12.106300 -58.758202
root -9.802220 18.403999 -4.652640 192.251999 64.972900 173.259995
ltoes -24.843500
lfemur -11.707800 5.400480 -9.814210
